<svg xmlns="http://www.w3.org/2000/svg" version="1.1" xmlns:xlink="http://www.w3.org/1999/xlink" xmlns:svgjs="http://svgjs.dev/svgjs" width="1000" height="1000" viewBox="0 0 1000 1000"><g transform="matrix(1,0,0,1,-0.14221556886212738,-0.14221556886229791)"><svg viewBox="0 0 334 334" data-background-color="#883d1a" preserveAspectRatio="xMidYMid meet" height="1000" width="1000" xmlns="http://www.w3.org/2000/svg" xmlns:xlink="http://www.w3.org/1999/xlink"><g id="tight-bounds" transform="matrix(1,0,0,1,0.04749999999998522,0.04750000000001364)"><svg viewBox="0 0 333.90454557049503 333.90454557049503" height="333.90454557049503" width="333.90454557049503"><g><svg></svg></g><g><svg viewBox="0 0 333.90454557049503 333.90454557049503" height="333.90454557049503" width="333.90454557049503"><g><path d="M0 166.952c0-92.205 74.747-166.952 166.952-166.952 92.205 0 166.952 74.747 166.953 166.952 0 92.205-74.747 166.952-166.953 166.953-92.205 0-166.952-74.747-166.952-166.953zM166.952 325.849c87.756 0 158.897-71.141 158.897-158.897 0-87.756-71.141-158.897-158.897-158.897-87.756 0-158.897 71.141-158.897 158.897 0 87.756 71.141 158.897 158.897 158.897z" data-fill-palette-color="tertiary" fill="#ffffff" stroke="transparent"></path><ellipse rx="160.27418187383762" ry="160.27418187383762" cx="166.95227278524752" cy="166.95227278524752" fill="#ffffff" stroke="transparent" stroke-width="0" fill-opacity="1" data-fill-palette-color="tertiary"></ellipse></g><g transform="matrix(1,0,0,1,116.14963387648268,71.17305217166896)"><svg viewBox="0 0 101.60527781752967 191.55844122715712" height="191.55844122715712" width="101.60527781752967"><g><svg viewBox="0 0 101.60527781752967 191.55844122715712" height="191.55844122715712" width="101.60527781752967"><g><svg viewBox="0 0 213.1584412271571 401.87182804828785" height="191.55844122715712" width="101.60527781752967"><g transform="matrix(1,0,0,1,0,214.4822757923883)"><svg viewBox="0 0 213.1584412271571 187.38955225589953" height="187.38955225589953" width="213.1584412271571"><g id="textblocktransform"><svg viewBox="0 0 213.1584412271571 187.38955225589953" height="187.38955225589953" width="213.1584412271571" id="textblock"><g><svg viewBox="0 0 213.1584412271571 187.38955225589953" height="187.38955225589953" width="213.1584412271571"><g transform="matrix(1,0,0,1,0,0)"><svg width="213.1584412271571" viewBox="2.4000000953674316 -34.349998474121094 47.14999771118164 41.44999694824219" height="187.38955225589953" data-palette-color="#883d1a"><path d="M6.65-17L6.65-17Q6.65-10.75 9.63-7.1 12.6-3.45 17.55-3.45L17.55-3.45Q22.7-3.45 25.53-7.05 28.35-10.65 28.35-17 28.35-23.35 25.5-26.95 22.65-30.55 17.5-30.55L17.5-30.55Q12.4-30.55 9.53-26.93 6.65-23.3 6.65-17ZM24.15-0.95L34.15 5.25 29.75 7.1 19.75 0.25Q18.7 0.4 17.55 0.4L17.55 0.4Q10.7 0.4 6.55-4.35 2.4-9.1 2.4-17L2.4-17Q2.4-24.95 6.48-29.65 10.55-34.35 17.5-34.35L17.5-34.35Q24.6-34.35 28.63-29.68 32.65-25 32.65-17L32.65-17Q32.65-11.2 30.43-7.03 28.2-2.85 24.15-0.95L24.15-0.95ZM36.95-1.1L36.95-1.1 36.95-5Q38.95-3.7 41.15-3.7L41.15-3.7Q45.5-3.7 45.5-8.3L45.5-8.3 45.5-33.7 49.55-33.7 49.55-8.65Q49.55 0 41.7 0L41.7 0Q38.9 0 36.95-1.1Z" opacity="1" transform="matrix(1,0,0,1,0,0)" fill="#883d1a" class="wordmark-text-0" data-fill-palette-color="quaternary" id="text-0"></path></svg></g></svg></g></svg></g></svg></g><g transform="matrix(1,0,0,1,40.713262274387006,0)"><svg viewBox="0 0 131.7319166783831 170.24409985402457" height="170.24409985402457" width="131.7319166783831"><g><svg xmlns="http://www.w3.org/2000/svg" xmlns:xlink="http://www.w3.org/1999/xlink" version="1.1" x="0" y="0" viewBox="12.982999801635742 1 75.68599700927734 97.81300354003906" enable-background="new 0 0 100 100" xml:space="preserve" height="170.24409985402457" width="131.7319166783831" class="icon-icon-0" data-fill-palette-color="quaternary" id="icon-0"><g fill="#883d1a" data-fill-palette-color="quaternary"><polygon fill-rule="evenodd" clip-rule="evenodd" points="12.983,10.59 30.001,98.813 24.129,39.764 53.15,37.872 53.096,27.989    64.549,1 53.622,18.977  " fill="#883d1a" data-fill-palette-color="quaternary"></polygon><polygon fill-rule="evenodd" clip-rule="evenodd" points="59.389,54.548 64.549,1.007 55.809,40.723 36.197,41.768 37.767,62.23    30.001,98.813 42.058,58.914  " fill="#883d1a" data-fill-palette-color="quaternary"></polygon><polygon fill-rule="evenodd" clip-rule="evenodd" points="62.8,67.182 63.349,56.729 47.37,60.484 47.338,72.281 30.001,98.813    51.681,71.197  " fill="#883d1a" data-fill-palette-color="quaternary"></polygon><polygon fill-rule="evenodd" clip-rule="evenodd" points="65.711,62.394 80.552,57.663 82.061,45.131 66.162,47.226  " fill="#883d1a" data-fill-palette-color="quaternary"></polygon><polygon fill-rule="evenodd" clip-rule="evenodd" points="72.07,44.502 83.058,43.085 84.639,32.807 76.56,32.434 64.549,1    72.979,31.967  " fill="#883d1a" data-fill-palette-color="quaternary"></polygon><polygon fill-rule="evenodd" clip-rule="evenodd" points="87.413,31.294 88.669,21.788 79.125,19.094 64.549,1 79.032,23.437    78.61,30.437  " fill="#883d1a" data-fill-palette-color="quaternary"></polygon></g></svg></g></svg></g><g></g></svg></g></svg></g></svg></g></svg></g><defs></defs></svg><rect width="333.90454557049503" height="333.90454557049503" fill="none" stroke="none" visibility="hidden"></rect></g></svg></g></svg>